<svg width="90" height="90" viewBox="0 0 90 90" fill="none" xmlns="http://www.w3.org/2000/svg">
<path d="M76.2842 9.999C75.7142 9.363 74.9012 9 74.0492 9H15.9512C15.0992 9 14.2862 9.363 13.7162 9.999C13.1462 10.635 12.8762 11.484 12.9692 12.33L19.5752 71.799C19.7072 73.008 20.5622 74.019 21.7322 74.352L44.1722 80.763C44.4422 80.841 44.7212 80.88 44.9972 80.88C45.2732 80.88 45.5522 80.841 45.8222 80.763L68.2622 74.352C69.4322 74.019 70.2842 73.008 70.4192 71.799L77.0282 12.33C77.1242 11.484 76.8542 10.635 76.2842 9.999ZM61.5482 39.222L60.2102 61.077L45.0962 66.018L29.9822 61.077L29.4092 50.625H37.0592L37.2512 55.377L45.0962 58.038L52.9412 55.377L53.5142 46.827H36.6782L36.2972 39.225H53.8982L54.4712 31.623H28.0682L27.4952 24.018H62.5052L61.5482 39.222Z" fill="#EEEEEE"/>
</svg>
