<svg width="90" height="90" viewBox="0 0 90 90" fill="none" xmlns="http://www.w3.org/2000/svg">
<path d="M30 87C23.373 87 18 81.627 18 75C18 68.373 23.373 63 30 63H38.571C40.464 63 42 64.536 42 66.429V75C42 81.627 36.627 87 30 87ZM60 27H51.429C49.536 27 48 25.464 48 23.571V6.429C48 4.536 49.536 3 51.429 3H60C66.627 3 72 8.373 72 15C72 21.627 66.627 27 60 27ZM30 3H38.571C40.464 3 42 4.536 42 6.429V23.571C42 25.464 40.464 27 38.571 27H30C23.373 27 18 21.627 18 15C18 8.373 23.373 3 30 3ZM30 33H38.571C40.464 33 42 34.536 42 36.429V53.571C42 55.464 40.464 57 38.571 57H30C23.373 57 18 51.627 18 45C18 38.373 23.373 33 30 33ZM60 33C56.8174 33 53.7652 34.2643 51.5147 36.5147C49.2643 38.7652 48 41.8174 48 45C48 48.1826 49.2643 51.2348 51.5147 53.4853C53.7652 55.7357 56.8174 57 60 57C63.1826 57 66.2348 55.7357 68.4853 53.4853C70.7357 51.2348 72 48.1826 72 45C72 41.8174 70.7357 38.7652 68.4853 36.5147C66.2348 34.2643 63.1826 33 60 33Z" fill="#EEEEEE"/>
</svg>
