<svg width="90" height="90" viewBox="0 0 90 90" fill="none" xmlns="http://www.w3.org/2000/svg">
<path d="M15 69.3751L43.5637 15.8176C44.1656 14.6888 45.7931 14.7094 46.365 15.8551L56.25 35.6251L15 69.3751Z" fill="#A6A6A6"/>
<path d="M15 69.3601L25.3987 5.23693C25.6706 3.55881 27.9244 3.19506 28.7119 4.70256L48.75 43.1101L15 69.3601Z" fill="#C9C9C9"/>
<path d="M15.0151 69.3487L15.3901 69.0543L48.257 42.165L38.987 24.3975L15.0151 69.3487Z" fill="#E7E7E7"/>
<path d="M15 69.375L64.9987 21.1631C66.0469 20.1525 67.7962 20.7488 68.01 22.1888L75 69.375L46.875 85.7681C45.7331 86.4094 44.34 86.4094 43.1981 85.7681L15 69.375Z" fill="#EEEEEE"/>
</svg>
