<svg width="90" height="90" viewBox="0 0 90 90" fill="none" xmlns="http://www.w3.org/2000/svg">
<path d="M84.2274 39.7617L50.2384 5.77263C48.797 4.32419 46.8985 3.59998 45.0001 3.59998C43.1017 3.59998 41.2032 4.32419 39.7618 5.77263L33.0399 12.4945L41.3579 20.8125C44.1212 19.1883 47.7212 19.5398 50.0907 21.9094C52.4603 24.2789 52.8048 27.8789 51.1806 30.6351L59.3579 38.8125C62.1212 37.1883 65.7212 37.5398 68.0907 39.9094C70.9032 42.7219 70.9032 47.2781 68.0907 50.0906C65.2782 52.9031 60.722 52.9031 57.9095 50.0906C55.5399 47.7211 55.1884 44.1211 56.8126 41.3578L48.6353 33.1804C48.0517 33.525 47.4399 33.7781 46.8001 33.9398V56.0531C49.9009 56.8547 52.2001 59.6461 52.2001 63C52.2001 66.9797 48.9798 70.2 45.0001 70.2C41.0204 70.2 37.8001 66.9797 37.8001 63C37.8001 59.6461 40.0993 56.8547 43.2001 56.0531V33.9398C41.9978 33.6304 40.8517 33.0328 39.9095 32.0906C37.5399 29.7211 37.1954 26.1211 38.8196 23.3648L30.4946 15.0398L5.77275 39.7617C2.87588 42.6515 2.87588 47.3484 5.77275 50.2383L39.7618 84.2273C41.2032 85.6758 43.1017 86.4 45.0001 86.4C46.8985 86.4 48.797 85.6758 50.2384 84.2273L84.2274 50.2383C87.1243 47.3484 87.1243 42.6515 84.2274 39.7617Z" fill="#EEEEEE"/>
</svg>
