<svg width="90" height="90" viewBox="0 0 90 90" fill="none" xmlns="http://www.w3.org/2000/svg">
<path d="M76.2842 9.999C75.7142 9.363 74.9012 9 74.0492 9H15.9512C15.0992 9 14.2862 9.363 13.7162 9.999C13.1462 10.635 12.8762 11.484 12.9692 12.33L19.5752 71.799C19.7072 73.008 20.5622 74.019 21.7322 74.352L44.1722 80.763C44.4422 80.841 44.7212 80.88 44.9972 80.88C45.2732 80.88 45.5522 80.841 45.8222 80.763L68.2622 74.352C69.4322 74.019 70.2842 73.008 70.4192 71.799L77.0282 12.33C77.1242 11.484 76.8542 10.635 76.2842 9.999ZM61.8872 31.29H35.0972L35.7332 38.916H61.2422L59.3282 61.446L45.0092 66L44.8682 65.955L30.7082 61.44L29.9342 52.26H36.8702L37.1732 55.827L45.0842 57.57L52.8572 55.824L53.6822 46.185H29.4122L27.5342 24H62.5112L61.8872 31.29Z" fill="#EEEEEE"/>
</svg>
