<svg width="90" height="90" viewBox="0 0 90 90" fill="none" xmlns="http://www.w3.org/2000/svg">
<path d="M22.5 11.25C19.5163 11.25 16.6548 12.4353 14.545 14.545C12.4353 16.6548 11.25 19.5163 11.25 22.5V67.5C11.25 70.4837 12.4353 73.3452 14.545 75.455C16.6548 77.5647 19.5163 78.75 22.5 78.75H67.5C70.4837 78.75 73.3452 77.5647 75.455 75.455C77.5647 73.3452 78.75 70.4837 78.75 67.5V22.5C78.75 19.5163 77.5647 16.6548 75.455 14.545C73.3452 12.4353 70.4837 11.25 67.5 11.25H22.5ZM50.0025 60.2063C52.7025 62.3813 55.395 63.45 58.0875 63.4238C59.7375 63.4238 61.005 63.1237 61.8825 62.5162C62.2922 62.2503 62.6256 61.8822 62.8498 61.4482C63.0741 61.0142 63.1814 60.5293 63.1613 60.0412C63.1667 59.5089 63.0553 58.9819 62.8351 58.4972C62.6148 58.0126 62.2909 57.5822 61.8862 57.2362C61.005 56.4675 59.34 55.6987 56.8912 54.9263C53.9512 54.075 51.6787 52.9762 50.085 51.6263C48.5175 50.2762 47.7225 48.3937 47.6925 45.975C47.6925 43.6912 48.6825 41.7825 50.6625 40.2412C52.59 38.7038 55.05 37.9312 58.05 37.9312C62.2275 37.9312 65.5838 38.9475 68.1113 40.9837L65.2237 45.48C64.1842 44.6714 62.9914 44.082 61.7175 43.7475C60.5727 43.3646 59.3768 43.156 58.17 43.1288C56.745 43.1288 55.6012 43.3913 54.7463 43.9125C53.895 44.4375 53.4712 45.1238 53.4712 45.975C53.4712 46.9125 53.9925 47.7075 55.035 48.3675C56.085 49.0012 57.87 49.7025 60.3975 50.4712C63.45 51.3787 65.625 52.59 66.915 54.1012C68.2087 55.6125 68.8538 57.54 68.8538 59.8763C68.8538 62.2687 67.935 64.3313 66.09 66.0638C64.275 67.77 61.635 68.6625 58.17 68.745C53.6325 68.745 49.8375 67.3838 46.785 64.6613L50.0025 60.2063ZM29.265 62.5988C30.1462 63.15 31.2038 63.4238 32.4412 63.4238C33.735 63.4238 34.8037 63.0525 35.6587 62.31C36.51 61.5412 36.9375 60.2062 36.9375 58.3088V38.4262H42.5063V59.3812C42.4237 62.625 41.49 64.965 39.7013 66.3937C38.7252 67.2237 37.5875 67.8417 36.36 68.2087C35.2231 68.5551 34.0422 68.7358 32.8537 68.745C30.7912 68.745 28.9613 68.3887 27.3675 67.6725C25.6612 66.9037 24.2325 65.5425 23.0775 63.5888L26.955 60.4125C27.6675 61.3763 28.44 62.1038 29.265 62.5988Z" fill="#EEEEEE"/>
</svg>
