<svg width="90" height="90" viewBox="0 0 90 90" fill="none" xmlns="http://www.w3.org/2000/svg">
<g clip-path="url(#clip0_199_122)">
<path d="M62.6625 0.911228L62.2125 11.0737C62.207 11.2023 62.2384 11.3297 62.3029 11.441C62.3675 11.5523 62.4625 11.6428 62.5767 11.702C62.691 11.7611 62.8198 11.7863 62.948 11.7746C63.0761 11.763 63.1982 11.715 63.3 11.6362L67.275 8.63623L70.65 11.2612C70.7491 11.3277 70.864 11.3667 70.9831 11.3742C71.1021 11.3818 71.2211 11.3577 71.3278 11.3043C71.4345 11.251 71.5252 11.1703 71.5905 11.0705C71.6559 10.9707 71.6937 10.8554 71.7 10.7362L71.325 0.386228L76.3125 0.011228C76.9279 -0.0293746 77.545 0.0569512 78.1257 0.264846C78.7063 0.472742 79.238 0.797768 79.6878 1.21975C80.1375 1.64173 80.4957 2.15165 80.7402 2.71787C80.9846 3.28409 81.1101 3.8945 81.1087 4.51123V85.4962C81.1095 86.1066 80.9861 86.7107 80.746 87.2719C80.5059 87.8331 80.1542 88.3395 79.7122 88.7605C79.2702 89.1814 78.7472 89.5081 78.175 89.7205C77.6028 89.9329 76.9933 90.0268 76.3837 89.9962L16.0237 87.2962C14.8885 87.2495 13.813 86.7751 13.0131 85.9682C12.2132 85.1614 11.7481 84.0818 11.7112 82.9462L8.89871 8.70748C8.86322 8.11631 8.94477 7.52394 9.13868 6.96435C9.3326 6.40476 9.63507 5.88895 10.0287 5.4465C10.4224 5.00405 10.8996 4.64366 11.4328 4.386C11.9661 4.12833 12.5449 3.97846 13.1362 3.94498L62.625 0.832478L62.6625 0.911228ZM51.15 34.875C51.15 36.6375 63 35.775 64.6125 34.575C64.6125 22.575 58.1625 16.2375 46.3912 16.2375C34.5787 16.2375 28.02 22.6875 28.02 32.325C28.02 49.0125 50.5162 49.3125 50.5162 58.4212C50.5162 61.0462 49.3162 62.5462 46.5787 62.5462C42.9787 62.5462 41.5162 60.7087 41.7037 54.4462C41.7037 53.0962 28.02 52.6462 27.57 54.4462C26.5575 69.5587 35.9325 73.9462 46.6912 73.9462C57.1537 73.9462 65.325 68.3587 65.325 58.2712C65.325 40.3837 42.4537 40.8712 42.4537 32.025C42.4537 28.3875 45.1537 27.9 46.6912 27.9C48.3787 27.9 51.3787 28.1625 51.1537 34.9125L51.15 34.875Z" fill="#EEEEEE"/>
</g>
<defs>
<clipPath id="clip0_199_122">
<rect width="90" height="90" fill="white"/>
</clipPath>
</defs>
</svg>
