<svg width="90" height="90" viewBox="0 0 90 90" fill="none" xmlns="http://www.w3.org/2000/svg">
<g clip-path="url(#clip0_199_129)">
<path d="M22.5689 43.2148C22.2173 47.6413 26.1062 50.9017 28.7601 50.9017C31.4177 50.7778 41.7683 42.0553 41.7683 42.0553C46.6363 35.8986 46.6574 33.161 46.6574 31.0092C46.2514 21.5095 28.944 35.9786 22.5689 43.2148ZM65.3831 39.5378C67.7324 34.5656 64.5717 29.0431 57.6965 33.8938C52.2332 37.3662 45.1603 44.5096 41.7753 47.3059C40.2052 50.4772 44.1853 59.1801 50.4923 54.585C57.9472 49.1688 63.3911 44.0759 65.3831 39.5378ZM71.7815 9.45949L73.2955 0H90V17.2677L83.8781 17.3408L76.5067 42.3077C76.9655 51.1193 72.4971 51.2627 71.9263 55.3059C70.4918 65.4678 59.1277 73.7826 54.7829 73.7826C51.8852 73.6986 49.7668 70.3774 49.0553 67.4833C57.2256 58.4464 68.2126 51.3446 68.2126 51.3446C68.8987 46.592 67.3908 45.0789 72.4618 41.0291L77.3007 15.5869C73.1681 12.8579 71.2397 12.9002 71.7815 9.45949ZM39.1764 51.5943C43.413 60.1309 49.5346 60.3534 59.0256 49.4851C59.2511 50.4898 59.4981 51.5426 59.0449 54.0703C39.7378 71.3389 21.5532 88.1455 16.0181 90H0V85.7039C2.60508 82.0912 23.985 64.4571 39.1764 51.5943ZM67.7106 68.123C66.8413 75.5121 60.1045 81.9781 51.1024 90H22.5724L46.6242 69.7403C50.7762 79.1895 58.1509 77.8206 67.7108 68.123M33.9715 51.351L0 80.3064V61.5206L19.9916 45.2461C21.0611 51.3037 27.6126 56.6378 33.9715 51.3513" fill="#EEEEEE"/>
</g>
<defs>
<clipPath id="clip0_199_129">
<rect width="90" height="90" fill="white"/>
</clipPath>
</defs>
</svg>
