<svg width="90" height="90" viewBox="0 0 90 90" fill="none" xmlns="http://www.w3.org/2000/svg">
<g clip-path="url(#clip0_199_120)">
<path d="M45 18.0074C33 18.0074 25.5 24.0056 22.5 36.0018C27 30.0037 32.25 27.7556 38.25 29.2537C41.6737 30.1087 44.1206 32.5931 46.83 35.3418C51.24 39.8174 56.3456 44.9999 67.5 44.9999C79.5 44.9999 87 39.0018 90 27.0037C85.5 33.0018 80.25 35.2518 74.25 33.7537C70.8281 32.8987 68.3813 30.4143 65.6719 27.6656C61.26 23.1881 56.1525 18.0074 45 18.0074ZM22.5 44.9999C10.5 44.9999 3 50.9981 0 62.9962C4.5 56.9981 9.75 54.7481 15.75 56.2481C19.1719 57.1049 21.6188 59.5874 24.3281 62.3343C28.74 66.8118 33.8475 71.9943 45 71.9943C57 71.9943 64.5 65.9962 67.5 53.9981C63 59.9962 57.75 62.2462 51.75 60.7462C48.3263 59.8912 45.8794 57.4068 43.17 54.6599C38.76 50.1824 33.6544 44.9999 22.5 44.9999Z" fill="#EEEEEE"/>
</g>
<defs>
<clipPath id="clip0_199_120">
<rect width="90" height="90" fill="white"/>
</clipPath>
</defs>
</svg>
