<svg width="90" height="90" viewBox="0 0 90 90" fill="none" xmlns="http://www.w3.org/2000/svg">
<path d="M11.25 18.75V71.25C11.25 75.3938 14.6062 78.75 18.75 78.75H71.25C75.3938 78.75 78.75 75.3938 78.75 71.25V18.75C78.75 14.6062 75.3938 11.25 71.25 11.25H18.75C14.6062 11.25 11.25 14.6062 11.25 18.75ZM51.2475 46.6912H43.305V71.25H36.9037V46.6912H29.1263V41.25H51.2475V46.6912ZM52.4925 69.8475V63.2812C52.4925 63.2812 56.0775 65.985 60.3825 65.985C64.6875 65.985 64.5187 63.1725 64.5187 62.7863C64.5187 58.7025 52.3275 58.7025 52.3275 49.6575C52.3275 37.3537 70.0913 42.21 70.0913 42.21L69.87 48.0562C69.87 48.0562 66.8925 46.0687 63.525 46.0687C60.1613 46.0687 58.9463 47.67 58.9463 49.38C58.9463 53.7938 71.25 53.3513 71.25 62.235C71.25 75.915 52.4925 69.8475 52.4925 69.8475Z" fill="#EEEEEE"/>
</svg>
