<svg width="90" height="90" viewBox="0 0 90 90" fill="none" xmlns="http://www.w3.org/2000/svg">
<g clip-path="url(#clip0_199_124)">
<path d="M79.8357 20.2507L46.8479 79.2383C46.1666 80.4565 44.4168 80.4635 43.7257 79.2517L10.0836 20.256C9.33054 18.9355 10.4598 17.3359 11.9567 17.6034L44.9797 23.5062C45.1904 23.5437 45.4062 23.5433 45.6167 23.5048L77.9492 17.6115C79.4409 17.3398 80.5754 18.9271 79.8357 20.2507Z" fill="#EEEEEE"/>
<path d="M60.7104 9.86134L36.2986 14.6444C36.1035 14.6825 35.9267 14.7844 35.7959 14.9341C35.6651 15.0838 35.5878 15.2728 35.5762 15.4712L34.0743 40.8333C34.0661 40.9723 34.0904 41.1114 34.1453 41.2394C34.2002 41.3674 34.2842 41.4809 34.3906 41.5708C34.497 41.6607 34.6228 41.7246 34.7582 41.7574C34.8936 41.7901 35.0347 41.7909 35.1705 41.7597L41.9672 40.1913C42.6032 40.0447 43.1777 40.6048 43.0472 41.2443L41.0279 51.1323C40.8918 51.7978 41.5169 52.3667 42.1666 52.1694L46.3646 50.894C47.0153 50.6964 47.6408 51.267 47.5029 51.9332L44.2939 67.4649C44.0931 68.4366 45.3855 68.9664 45.9244 68.1332L46.2844 67.577L66.1765 27.8786C66.5098 27.2141 65.9354 26.4561 65.2052 26.5968L58.2094 27.9471C57.552 28.0737 56.9927 27.4616 57.1779 26.8186L61.7444 10.9892C61.93 10.3451 61.3686 9.73267 60.7104 9.86134Z" fill="#BABABA"/>
</g>
<defs>
<clipPath id="clip0_199_124">
<rect width="90" height="90" fill="white"/>
</clipPath>
</defs>
</svg>
